# xmcd
#
# Track frame offsets: 
#        150
#        13052
#        26572
#        39247
#        53715
#        67312
#        80920
#        95032
#        108340
#        124220
#        139480
#        152930
#        167635
#        183705
#        197852
#        210755
#        226372
#        241890
#        256352
#        268245
#
# Disc length: 3788 seconds
#
# Revision: 0
# Processed by: cddbd v1.5.2PL0 Copyright (c) Steve Scherf et al.
# Submitted via: ExactAudioCopy v0.99pb3
#
DISCID=290eca14
DTITLE=Bessie Smith - I've Got What It Takes
DYEAR=1929
DGENRE=Blues
TTITLE0=I'm Wild About That Thing
TTITLE1=Kitchen Man
TTITLE2=You've Got To Give Me Some
TTITLE3=I've Got What It Takes
TTITLE4=Nobody Knows You When You're Down And Out
TTITLE5=It Makes My Love Come Down
TTITLE6=Wasted Life Blues
TTITLE7=New Orleans Hop Scop Blues
TTITLE8=See If I'll Care
TTITLE9=Baby Have Pity On Me
TTITLE10=On Revival Day
TTITLE11=Moan You Moaners
TTITLE12=Hustlin Dan
TTITLE13=Black Mountain Blues
TTITLE14=Need A Little Sugar In My Bowl
TTITLE15=Safety Mama
TTITLE16=Do Your Duty
TTITLE17=I'm Down In The Dumps
TTITLE18=Take Me For A Buggy Ride
TTITLE19=Gimme A Pigfoot
EXTD=
EXTT0=
EXTT1=
EXTT2=
EXTT3=
EXTT4=
EXTT5=
EXTT6=
EXTT7=
EXTT8=
EXTT9=
EXTT10=
EXTT11=
EXTT12=
EXTT13=
EXTT14=
EXTT15=
EXTT16=
EXTT17=
EXTT18=
EXTT19=
PLAYORDER=
